<mxfile host="app.diagrams.net" agent="Mozilla/5.0 (Windows NT 10.0; Win64; x64) AppleWebKit/537.36 (KHTML, like Gecko) Chrome/138.0.0.0 Safari/537.36" version="27.2.0">
  <diagram name="PÃ¡gina-1" id="BkU9QhQUIdd68A8L0P6W">
    <mxGraphModel dx="1997" dy="1037" grid="1" gridSize="10" guides="1" tooltips="1" connect="1" arrows="1" fold="1" page="1" pageScale="1" pageWidth="827" pageHeight="1169" math="0" shadow="0">
      <root>
        <mxCell id="0" />
        <mxCell id="1" parent="0" />
        <mxCell id="xaVwnvX1pW1te5dj2mxQ-4" style="edgeStyle=orthogonalEdgeStyle;rounded=0;orthogonalLoop=1;jettySize=auto;html=1;entryX=0.5;entryY=1;entryDx=0;entryDy=0;" parent="1" source="90ok9S_lP7ERI0MDJw1I-1" target="xaVwnvX1pW1te5dj2mxQ-1" edge="1">
          <mxGeometry relative="1" as="geometry">
            <mxPoint x="49" y="110" as="targetPoint" />
          </mxGeometry>
        </mxCell>
        <mxCell id="xaVwnvX1pW1te5dj2mxQ-5" style="edgeStyle=orthogonalEdgeStyle;rounded=0;orthogonalLoop=1;jettySize=auto;html=1;exitX=0.5;exitY=1;exitDx=0;exitDy=0;entryX=0.5;entryY=1;entryDx=0;entryDy=0;" parent="1" source="90ok9S_lP7ERI0MDJw1I-1" target="xaVwnvX1pW1te5dj2mxQ-3" edge="1">
          <mxGeometry relative="1" as="geometry">
            <mxPoint x="134" y="120" as="targetPoint" />
            <Array as="points">
              <mxPoint x="104" y="130" />
              <mxPoint x="122" y="130" />
              <mxPoint x="122" y="120" />
            </Array>
          </mxGeometry>
        </mxCell>
        <mxCell id="90ok9S_lP7ERI0MDJw1I-1" value="ROLES&amp;nbsp;" style="rounded=0;whiteSpace=wrap;html=1;fillColor=#30F8FF;" parent="1" vertex="1">
          <mxGeometry x="59" y="140" width="90" height="30" as="geometry" />
        </mxCell>
        <mxCell id="xaVwnvX1pW1te5dj2mxQ-7" style="edgeStyle=orthogonalEdgeStyle;rounded=0;orthogonalLoop=1;jettySize=auto;html=1;exitX=0.5;exitY=1;exitDx=0;exitDy=0;entryX=0.5;entryY=0;entryDx=0;entryDy=0;" parent="1" source="90ok9S_lP7ERI0MDJw1I-2" target="xaVwnvX1pW1te5dj2mxQ-10" edge="1">
          <mxGeometry relative="1" as="geometry">
            <mxPoint x="174" y="370" as="targetPoint" />
            <Array as="points">
              <mxPoint x="139" y="350" />
              <mxPoint x="139" y="370" />
              <mxPoint x="69" y="370" />
            </Array>
          </mxGeometry>
        </mxCell>
        <mxCell id="xaVwnvX1pW1te5dj2mxQ-14" style="edgeStyle=orthogonalEdgeStyle;rounded=0;orthogonalLoop=1;jettySize=auto;html=1;exitX=0;exitY=0.5;exitDx=0;exitDy=0;entryX=1;entryY=0.5;entryDx=0;entryDy=0;" parent="1" source="90ok9S_lP7ERI0MDJw1I-2" target="xaVwnvX1pW1te5dj2mxQ-8" edge="1">
          <mxGeometry relative="1" as="geometry" />
        </mxCell>
        <mxCell id="xaVwnvX1pW1te5dj2mxQ-17" style="edgeStyle=orthogonalEdgeStyle;rounded=0;orthogonalLoop=1;jettySize=auto;html=1;exitX=0;exitY=0;exitDx=0;exitDy=0;entryX=0.5;entryY=1;entryDx=0;entryDy=0;" parent="1" source="90ok9S_lP7ERI0MDJw1I-2" target="xaVwnvX1pW1te5dj2mxQ-16" edge="1">
          <mxGeometry relative="1" as="geometry">
            <Array as="points">
              <mxPoint x="129" y="300" />
              <mxPoint x="79" y="300" />
              <mxPoint x="79" y="280" />
            </Array>
          </mxGeometry>
        </mxCell>
        <mxCell id="xaVwnvX1pW1te5dj2mxQ-18" style="edgeStyle=orthogonalEdgeStyle;rounded=0;orthogonalLoop=1;jettySize=auto;html=1;exitX=0.5;exitY=0;exitDx=0;exitDy=0;entryX=0.5;entryY=1;entryDx=0;entryDy=0;" parent="1" source="90ok9S_lP7ERI0MDJw1I-2" target="xaVwnvX1pW1te5dj2mxQ-12" edge="1">
          <mxGeometry relative="1" as="geometry" />
        </mxCell>
        <mxCell id="xaVwnvX1pW1te5dj2mxQ-21" style="edgeStyle=orthogonalEdgeStyle;rounded=0;orthogonalLoop=1;jettySize=auto;html=1;exitX=0.5;exitY=1;exitDx=0;exitDy=0;entryX=0.5;entryY=0;entryDx=0;entryDy=0;" parent="1" source="90ok9S_lP7ERI0MDJw1I-2" target="xaVwnvX1pW1te5dj2mxQ-13" edge="1">
          <mxGeometry relative="1" as="geometry" />
        </mxCell>
        <mxCell id="xaVwnvX1pW1te5dj2mxQ-90" style="edgeStyle=orthogonalEdgeStyle;rounded=0;orthogonalLoop=1;jettySize=auto;html=1;exitX=0.75;exitY=0;exitDx=0;exitDy=0;entryX=0.5;entryY=1;entryDx=0;entryDy=0;" parent="1" source="90ok9S_lP7ERI0MDJw1I-2" target="xaVwnvX1pW1te5dj2mxQ-91" edge="1">
          <mxGeometry relative="1" as="geometry">
            <mxPoint x="314" y="210" as="targetPoint" />
            <Array as="points">
              <mxPoint x="197" y="275" />
              <mxPoint x="214" y="275" />
              <mxPoint x="214" y="210" />
            </Array>
          </mxGeometry>
        </mxCell>
        <mxCell id="xaVwnvX1pW1te5dj2mxQ-99" style="edgeStyle=orthogonalEdgeStyle;rounded=0;orthogonalLoop=1;jettySize=auto;html=1;exitX=0.25;exitY=0;exitDx=0;exitDy=0;entryX=0.5;entryY=1;entryDx=0;entryDy=0;" parent="1" source="90ok9S_lP7ERI0MDJw1I-2" target="xaVwnvX1pW1te5dj2mxQ-95" edge="1">
          <mxGeometry relative="1" as="geometry">
            <Array as="points">
              <mxPoint x="152" y="280" />
              <mxPoint x="100" y="280" />
            </Array>
          </mxGeometry>
        </mxCell>
        <mxCell id="wxssQNWGxN7WhbjY_FcK-8" style="edgeStyle=orthogonalEdgeStyle;rounded=0;orthogonalLoop=1;jettySize=auto;html=1;exitX=0.75;exitY=1;exitDx=0;exitDy=0;entryX=1;entryY=0;entryDx=0;entryDy=0;" parent="1" source="90ok9S_lP7ERI0MDJw1I-2" target="xaVwnvX1pW1te5dj2mxQ-26" edge="1">
          <mxGeometry relative="1" as="geometry">
            <Array as="points">
              <mxPoint x="197" y="380" />
              <mxPoint x="240" y="380" />
              <mxPoint x="240" y="446" />
            </Array>
          </mxGeometry>
        </mxCell>
        <mxCell id="wxssQNWGxN7WhbjY_FcK-14" style="edgeStyle=orthogonalEdgeStyle;rounded=0;orthogonalLoop=1;jettySize=auto;html=1;exitX=1;exitY=1;exitDx=0;exitDy=0;entryX=0;entryY=0;entryDx=0;entryDy=0;" parent="1" source="90ok9S_lP7ERI0MDJw1I-2" target="xaVwnvX1pW1te5dj2mxQ-11" edge="1">
          <mxGeometry relative="1" as="geometry">
            <Array as="points">
              <mxPoint x="219" y="370" />
              <mxPoint x="267" y="370" />
            </Array>
          </mxGeometry>
        </mxCell>
        <mxCell id="wxssQNWGxN7WhbjY_FcK-15" style="edgeStyle=orthogonalEdgeStyle;rounded=0;orthogonalLoop=1;jettySize=auto;html=1;exitX=1;exitY=1;exitDx=0;exitDy=0;entryX=0;entryY=0;entryDx=0;entryDy=0;" parent="1" source="90ok9S_lP7ERI0MDJw1I-2" target="xaVwnvX1pW1te5dj2mxQ-19" edge="1">
          <mxGeometry relative="1" as="geometry">
            <Array as="points">
              <mxPoint x="289" y="350" />
            </Array>
          </mxGeometry>
        </mxCell>
        <mxCell id="mYfQ8tRDo9UHmEF64cow-31" style="edgeStyle=orthogonalEdgeStyle;rounded=0;orthogonalLoop=1;jettySize=auto;html=1;exitX=1;exitY=0.5;exitDx=0;exitDy=0;entryX=0;entryY=0.5;entryDx=0;entryDy=0;" edge="1" parent="1" source="90ok9S_lP7ERI0MDJw1I-2" target="mYfQ8tRDo9UHmEF64cow-29">
          <mxGeometry relative="1" as="geometry">
            <Array as="points">
              <mxPoint x="340" y="320" />
              <mxPoint x="340" y="195" />
            </Array>
          </mxGeometry>
        </mxCell>
        <mxCell id="mYfQ8tRDo9UHmEF64cow-43" style="edgeStyle=orthogonalEdgeStyle;rounded=0;orthogonalLoop=1;jettySize=auto;html=1;exitX=1;exitY=0.75;exitDx=0;exitDy=0;entryX=0.5;entryY=0;entryDx=0;entryDy=0;" edge="1" parent="1" source="90ok9S_lP7ERI0MDJw1I-2" target="mYfQ8tRDo9UHmEF64cow-42">
          <mxGeometry relative="1" as="geometry">
            <Array as="points">
              <mxPoint x="390" y="330" />
              <mxPoint x="390" y="485" />
              <mxPoint x="360" y="485" />
              <mxPoint x="360" y="760" />
            </Array>
          </mxGeometry>
        </mxCell>
        <mxCell id="mYfQ8tRDo9UHmEF64cow-57" style="edgeStyle=orthogonalEdgeStyle;rounded=0;orthogonalLoop=1;jettySize=auto;html=1;" edge="1" parent="1" source="mYfQ8tRDo9UHmEF64cow-58">
          <mxGeometry relative="1" as="geometry">
            <mxPoint x="397.25" y="275" as="targetPoint" />
          </mxGeometry>
        </mxCell>
        <mxCell id="90ok9S_lP7ERI0MDJw1I-2" value="USUARIO&amp;nbsp;" style="rounded=0;whiteSpace=wrap;html=1;fillColor=#30F8FF;" parent="1" vertex="1">
          <mxGeometry x="146.5" y="300" width="90" height="40" as="geometry" />
        </mxCell>
        <mxCell id="xaVwnvX1pW1te5dj2mxQ-69" style="edgeStyle=orthogonalEdgeStyle;rounded=0;orthogonalLoop=1;jettySize=auto;html=1;exitX=0;exitY=1;exitDx=0;exitDy=0;entryX=0.5;entryY=0;entryDx=0;entryDy=0;" parent="1" source="90ok9S_lP7ERI0MDJw1I-3" target="xaVwnvX1pW1te5dj2mxQ-68" edge="1">
          <mxGeometry relative="1" as="geometry">
            <Array as="points">
              <mxPoint x="105" y="857.5" />
              <mxPoint x="59" y="857.5" />
            </Array>
          </mxGeometry>
        </mxCell>
        <mxCell id="xaVwnvX1pW1te5dj2mxQ-85" style="edgeStyle=orthogonalEdgeStyle;rounded=0;orthogonalLoop=1;jettySize=auto;html=1;exitX=0.5;exitY=1;exitDx=0;exitDy=0;entryX=0.5;entryY=0;entryDx=0;entryDy=0;" parent="1" source="90ok9S_lP7ERI0MDJw1I-3" target="xaVwnvX1pW1te5dj2mxQ-83" edge="1">
          <mxGeometry relative="1" as="geometry">
            <Array as="points">
              <mxPoint x="120" y="893" />
              <mxPoint x="120" y="950" />
              <mxPoint x="59" y="950" />
            </Array>
          </mxGeometry>
        </mxCell>
        <mxCell id="wxssQNWGxN7WhbjY_FcK-12" style="edgeStyle=orthogonalEdgeStyle;rounded=0;orthogonalLoop=1;jettySize=auto;html=1;exitX=0.75;exitY=0;exitDx=0;exitDy=0;entryX=0;entryY=0.5;entryDx=0;entryDy=0;" parent="1" source="90ok9S_lP7ERI0MDJw1I-3" target="wxssQNWGxN7WhbjY_FcK-11" edge="1">
          <mxGeometry relative="1" as="geometry" />
        </mxCell>
        <mxCell id="mYfQ8tRDo9UHmEF64cow-34" style="edgeStyle=orthogonalEdgeStyle;rounded=0;orthogonalLoop=1;jettySize=auto;html=1;exitX=0.25;exitY=1;exitDx=0;exitDy=0;entryX=0.5;entryY=0;entryDx=0;entryDy=0;" edge="1" parent="1" source="90ok9S_lP7ERI0MDJw1I-3" target="mYfQ8tRDo9UHmEF64cow-33">
          <mxGeometry relative="1" as="geometry">
            <Array as="points">
              <mxPoint x="130" y="996" />
              <mxPoint x="114" y="996" />
            </Array>
          </mxGeometry>
        </mxCell>
        <mxCell id="mYfQ8tRDo9UHmEF64cow-36" style="edgeStyle=orthogonalEdgeStyle;rounded=0;orthogonalLoop=1;jettySize=auto;html=1;exitX=0.5;exitY=1;exitDx=0;exitDy=0;entryX=0;entryY=0;entryDx=0;entryDy=0;" edge="1" parent="1" source="90ok9S_lP7ERI0MDJw1I-3" target="mYfQ8tRDo9UHmEF64cow-35">
          <mxGeometry relative="1" as="geometry" />
        </mxCell>
        <mxCell id="mYfQ8tRDo9UHmEF64cow-38" style="edgeStyle=orthogonalEdgeStyle;rounded=0;orthogonalLoop=1;jettySize=auto;html=1;exitX=0.75;exitY=1;exitDx=0;exitDy=0;entryX=0.5;entryY=0;entryDx=0;entryDy=0;" edge="1" parent="1" source="90ok9S_lP7ERI0MDJw1I-3" target="mYfQ8tRDo9UHmEF64cow-37">
          <mxGeometry relative="1" as="geometry" />
        </mxCell>
        <mxCell id="90ok9S_lP7ERI0MDJw1I-3" value="DOMICILIO&amp;nbsp;" style="rounded=0;whiteSpace=wrap;html=1;fillColor=#30F8FF;" parent="1" vertex="1">
          <mxGeometry x="105" y="862.5" width="100" height="30" as="geometry" />
        </mxCell>
        <mxCell id="xaVwnvX1pW1te5dj2mxQ-64" style="edgeStyle=orthogonalEdgeStyle;rounded=0;orthogonalLoop=1;jettySize=auto;html=1;exitX=0.49;exitY=-0.14;exitDx=0;exitDy=0;entryX=0.5;entryY=1;entryDx=0;entryDy=0;exitPerimeter=0;" parent="1" source="90ok9S_lP7ERI0MDJw1I-3" target="xaVwnvX1pW1te5dj2mxQ-63" edge="1">
          <mxGeometry relative="1" as="geometry" />
        </mxCell>
        <mxCell id="xaVwnvX1pW1te5dj2mxQ-40" style="edgeStyle=orthogonalEdgeStyle;rounded=0;orthogonalLoop=1;jettySize=auto;html=1;exitX=0;exitY=0.5;exitDx=0;exitDy=0;" parent="1" source="90ok9S_lP7ERI0MDJw1I-5" target="xaVwnvX1pW1te5dj2mxQ-38" edge="1">
          <mxGeometry relative="1" as="geometry">
            <Array as="points">
              <mxPoint x="550" y="735" />
            </Array>
            <mxPoint x="498.50000000000136" y="745" as="targetPoint" />
          </mxGeometry>
        </mxCell>
        <mxCell id="xaVwnvX1pW1te5dj2mxQ-41" style="edgeStyle=orthogonalEdgeStyle;rounded=0;orthogonalLoop=1;jettySize=auto;html=1;exitX=0.25;exitY=1;exitDx=0;exitDy=0;" parent="1" source="90ok9S_lP7ERI0MDJw1I-5" target="xaVwnvX1pW1te5dj2mxQ-39" edge="1">
          <mxGeometry relative="1" as="geometry">
            <mxPoint x="558.5" y="745" as="sourcePoint" />
          </mxGeometry>
        </mxCell>
        <mxCell id="xaVwnvX1pW1te5dj2mxQ-45" style="edgeStyle=orthogonalEdgeStyle;rounded=0;orthogonalLoop=1;jettySize=auto;html=1;exitX=0.75;exitY=1;exitDx=0;exitDy=0;entryX=0;entryY=0;entryDx=0;entryDy=0;" parent="1" source="90ok9S_lP7ERI0MDJw1I-5" target="xaVwnvX1pW1te5dj2mxQ-44" edge="1">
          <mxGeometry relative="1" as="geometry" />
        </mxCell>
        <mxCell id="wxssQNWGxN7WhbjY_FcK-4" style="edgeStyle=orthogonalEdgeStyle;rounded=0;orthogonalLoop=1;jettySize=auto;html=1;exitX=1;exitY=0;exitDx=0;exitDy=0;entryX=0.5;entryY=0;entryDx=0;entryDy=0;" parent="1" source="90ok9S_lP7ERI0MDJw1I-5" target="wxssQNWGxN7WhbjY_FcK-2" edge="1">
          <mxGeometry relative="1" as="geometry">
            <Array as="points">
              <mxPoint x="657" y="730" />
              <mxPoint x="746" y="730" />
            </Array>
          </mxGeometry>
        </mxCell>
        <mxCell id="90ok9S_lP7ERI0MDJw1I-5" value="MEDICAMENTOS&amp;nbsp;" style="rounded=0;whiteSpace=wrap;html=1;fillColor=#30F8FF;" parent="1" vertex="1">
          <mxGeometry x="550" y="760" width="107" height="40" as="geometry" />
        </mxCell>
        <mxCell id="xaVwnvX1pW1te5dj2mxQ-49" style="edgeStyle=orthogonalEdgeStyle;rounded=0;orthogonalLoop=1;jettySize=auto;html=1;exitX=0.25;exitY=1;exitDx=0;exitDy=0;entryX=0.5;entryY=0;entryDx=0;entryDy=0;" parent="1" source="90ok9S_lP7ERI0MDJw1I-6" target="xaVwnvX1pW1te5dj2mxQ-47" edge="1">
          <mxGeometry relative="1" as="geometry">
            <Array as="points">
              <mxPoint x="610" y="580" />
              <mxPoint x="610" y="590" />
              <mxPoint x="600" y="590" />
              <mxPoint x="600" y="600" />
              <mxPoint x="591" y="600" />
            </Array>
          </mxGeometry>
        </mxCell>
        <mxCell id="xaVwnvX1pW1te5dj2mxQ-51" style="edgeStyle=orthogonalEdgeStyle;rounded=0;orthogonalLoop=1;jettySize=auto;html=1;exitX=1;exitY=0.75;exitDx=0;exitDy=0;entryX=0.5;entryY=0;entryDx=0;entryDy=0;" parent="1" source="90ok9S_lP7ERI0MDJw1I-6" target="xaVwnvX1pW1te5dj2mxQ-50" edge="1">
          <mxGeometry relative="1" as="geometry">
            <Array as="points">
              <mxPoint x="639" y="573" />
              <mxPoint x="639" y="610" />
              <mxPoint x="691" y="610" />
            </Array>
          </mxGeometry>
        </mxCell>
        <mxCell id="xaVwnvX1pW1te5dj2mxQ-115" style="edgeStyle=orthogonalEdgeStyle;rounded=0;orthogonalLoop=1;jettySize=auto;html=1;exitX=0;exitY=0.75;exitDx=0;exitDy=0;entryX=0.5;entryY=0;entryDx=0;entryDy=0;" parent="1" source="90ok9S_lP7ERI0MDJw1I-6" target="xaVwnvX1pW1te5dj2mxQ-111" edge="1">
          <mxGeometry relative="1" as="geometry" />
        </mxCell>
        <mxCell id="wxssQNWGxN7WhbjY_FcK-20" style="edgeStyle=orthogonalEdgeStyle;rounded=0;orthogonalLoop=1;jettySize=auto;html=1;exitX=0.75;exitY=1;exitDx=0;exitDy=0;entryX=0;entryY=0.5;entryDx=0;entryDy=0;" parent="1" source="90ok9S_lP7ERI0MDJw1I-6" target="wxssQNWGxN7WhbjY_FcK-17" edge="1">
          <mxGeometry relative="1" as="geometry" />
        </mxCell>
        <mxCell id="wxssQNWGxN7WhbjY_FcK-21" style="edgeStyle=orthogonalEdgeStyle;rounded=0;orthogonalLoop=1;jettySize=auto;html=1;exitX=1;exitY=0.25;exitDx=0;exitDy=0;entryX=0;entryY=0.5;entryDx=0;entryDy=0;" parent="1" source="90ok9S_lP7ERI0MDJw1I-6" target="wxssQNWGxN7WhbjY_FcK-18" edge="1">
          <mxGeometry relative="1" as="geometry" />
        </mxCell>
        <mxCell id="wxssQNWGxN7WhbjY_FcK-23" style="edgeStyle=orthogonalEdgeStyle;rounded=0;orthogonalLoop=1;jettySize=auto;html=1;exitX=0.75;exitY=0;exitDx=0;exitDy=0;entryX=0;entryY=0.5;entryDx=0;entryDy=0;" parent="1" source="90ok9S_lP7ERI0MDJw1I-6" target="wxssQNWGxN7WhbjY_FcK-22" edge="1">
          <mxGeometry relative="1" as="geometry" />
        </mxCell>
        <mxCell id="mYfQ8tRDo9UHmEF64cow-71" style="edgeStyle=orthogonalEdgeStyle;rounded=0;orthogonalLoop=1;jettySize=auto;html=1;exitX=0.25;exitY=0;exitDx=0;exitDy=0;entryX=1;entryY=0.5;entryDx=0;entryDy=0;" edge="1" parent="1" source="90ok9S_lP7ERI0MDJw1I-6" target="xaVwnvX1pW1te5dj2mxQ-46">
          <mxGeometry relative="1" as="geometry" />
        </mxCell>
        <mxCell id="90ok9S_lP7ERI0MDJw1I-6" value="INVENTARIO&amp;nbsp;" style="rounded=0;whiteSpace=wrap;html=1;fillColor=#30F8FF;" parent="1" vertex="1">
          <mxGeometry x="592.75" y="550" width="80" height="30" as="geometry" />
        </mxCell>
        <mxCell id="xaVwnvX1pW1te5dj2mxQ-59" style="edgeStyle=orthogonalEdgeStyle;rounded=0;orthogonalLoop=1;jettySize=auto;html=1;exitX=0.75;exitY=1;exitDx=0;exitDy=0;entryX=0;entryY=0;entryDx=0;entryDy=0;" parent="1" source="90ok9S_lP7ERI0MDJw1I-7" target="xaVwnvX1pW1te5dj2mxQ-56" edge="1">
          <mxGeometry relative="1" as="geometry" />
        </mxCell>
        <mxCell id="xaVwnvX1pW1te5dj2mxQ-60" style="edgeStyle=orthogonalEdgeStyle;rounded=0;orthogonalLoop=1;jettySize=auto;html=1;exitX=1;exitY=0.5;exitDx=0;exitDy=0;entryX=0;entryY=0.5;entryDx=0;entryDy=0;" parent="1" source="90ok9S_lP7ERI0MDJw1I-7" target="xaVwnvX1pW1te5dj2mxQ-57" edge="1">
          <mxGeometry relative="1" as="geometry" />
        </mxCell>
        <mxCell id="xaVwnvX1pW1te5dj2mxQ-61" style="edgeStyle=orthogonalEdgeStyle;rounded=0;orthogonalLoop=1;jettySize=auto;html=1;exitX=1;exitY=0.25;exitDx=0;exitDy=0;entryX=0;entryY=0.725;entryDx=0;entryDy=0;entryPerimeter=0;" parent="1" source="90ok9S_lP7ERI0MDJw1I-7" target="xaVwnvX1pW1te5dj2mxQ-62" edge="1">
          <mxGeometry relative="1" as="geometry">
            <mxPoint x="674.87" y="955" as="targetPoint" />
          </mxGeometry>
        </mxCell>
        <mxCell id="xaVwnvX1pW1te5dj2mxQ-123" style="edgeStyle=orthogonalEdgeStyle;rounded=0;orthogonalLoop=1;jettySize=auto;html=1;exitX=0.25;exitY=0;exitDx=0;exitDy=0;entryX=0.5;entryY=1;entryDx=0;entryDy=0;" parent="1" source="90ok9S_lP7ERI0MDJw1I-7" target="xaVwnvX1pW1te5dj2mxQ-124" edge="1">
          <mxGeometry relative="1" as="geometry">
            <mxPoint x="559.5366666666667" y="935" as="targetPoint" />
          </mxGeometry>
        </mxCell>
        <mxCell id="wxssQNWGxN7WhbjY_FcK-16" style="edgeStyle=orthogonalEdgeStyle;rounded=0;orthogonalLoop=1;jettySize=auto;html=1;exitX=0;exitY=1;exitDx=0;exitDy=0;entryX=0.5;entryY=0;entryDx=0;entryDy=0;" parent="1" source="90ok9S_lP7ERI0MDJw1I-7" target="xaVwnvX1pW1te5dj2mxQ-55" edge="1">
          <mxGeometry relative="1" as="geometry" />
        </mxCell>
        <mxCell id="mYfQ8tRDo9UHmEF64cow-45" style="edgeStyle=orthogonalEdgeStyle;rounded=0;orthogonalLoop=1;jettySize=auto;html=1;exitX=0;exitY=0.5;exitDx=0;exitDy=0;entryX=1;entryY=0.5;entryDx=0;entryDy=0;" edge="1" parent="1" source="90ok9S_lP7ERI0MDJw1I-7" target="xaVwnvX1pW1te5dj2mxQ-118">
          <mxGeometry relative="1" as="geometry">
            <mxPoint x="400.62" y="1155" as="targetPoint" />
            <Array as="points">
              <mxPoint x="541.12" y="982.5" />
              <mxPoint x="425.12" y="982.5" />
            </Array>
          </mxGeometry>
        </mxCell>
        <mxCell id="mYfQ8tRDo9UHmEF64cow-68" style="edgeStyle=orthogonalEdgeStyle;rounded=0;orthogonalLoop=1;jettySize=auto;html=1;exitX=0.5;exitY=0;exitDx=0;exitDy=0;entryX=0.5;entryY=1;entryDx=0;entryDy=0;" edge="1" parent="1" source="90ok9S_lP7ERI0MDJw1I-7" target="mYfQ8tRDo9UHmEF64cow-67">
          <mxGeometry relative="1" as="geometry" />
        </mxCell>
        <mxCell id="90ok9S_lP7ERI0MDJw1I-7" value="ORDENES&amp;nbsp;" style="rounded=0;whiteSpace=wrap;html=1;fillColor=#30F8FF;" parent="1" vertex="1">
          <mxGeometry x="540.87" y="955" width="100" height="40" as="geometry" />
        </mxCell>
        <mxCell id="xaVwnvX1pW1te5dj2mxQ-1" value="ID_ROL" style="ellipse;whiteSpace=wrap;html=1;" parent="1" vertex="1">
          <mxGeometry x="4" y="60" width="80" height="40" as="geometry" />
        </mxCell>
        <mxCell id="xaVwnvX1pW1te5dj2mxQ-3" value="Nombre_ROL" style="ellipse;whiteSpace=wrap;html=1;" parent="1" vertex="1">
          <mxGeometry x="89" y="60" width="85" height="40" as="geometry" />
        </mxCell>
        <mxCell id="xaVwnvX1pW1te5dj2mxQ-8" value="Nombre_Usuario" style="ellipse;whiteSpace=wrap;html=1;" parent="1" vertex="1">
          <mxGeometry x="9" y="300" width="100" height="40" as="geometry" />
        </mxCell>
        <mxCell id="xaVwnvX1pW1te5dj2mxQ-10" value="Correo_Usuario" style="ellipse;whiteSpace=wrap;html=1;" parent="1" vertex="1">
          <mxGeometry x="19" y="380" width="100" height="40" as="geometry" />
        </mxCell>
        <mxCell id="xaVwnvX1pW1te5dj2mxQ-11" value="DirecciÃ³n_Usuario" style="ellipse;whiteSpace=wrap;html=1;" parent="1" vertex="1">
          <mxGeometry x="251.5" y="400" width="110" height="30" as="geometry" />
        </mxCell>
        <mxCell id="xaVwnvX1pW1te5dj2mxQ-12" value="ID_Usuario" style="ellipse;whiteSpace=wrap;html=1;" parent="1" vertex="1">
          <mxGeometry x="109" y="230" width="100" height="40" as="geometry" />
        </mxCell>
        <mxCell id="xaVwnvX1pW1te5dj2mxQ-13" value="TelÃ©fono _Usuario" style="ellipse;whiteSpace=wrap;html=1;" parent="1" vertex="1">
          <mxGeometry x="134" y="390" width="100" height="40" as="geometry" />
        </mxCell>
        <mxCell id="xaVwnvX1pW1te5dj2mxQ-16" value="ContraseÃ±a _Usuario" style="ellipse;whiteSpace=wrap;html=1;" parent="1" vertex="1">
          <mxGeometry x="4" y="230" width="87.5" height="40" as="geometry" />
        </mxCell>
        <mxCell id="xaVwnvX1pW1te5dj2mxQ-19" value="NumDNI_Usuario" style="ellipse;whiteSpace=wrap;html=1;" parent="1" vertex="1">
          <mxGeometry x="274" y="360" width="110" height="30" as="geometry" />
        </mxCell>
        <mxCell id="xaVwnvX1pW1te5dj2mxQ-20" value="TipoDNI_Usuario" style="ellipse;whiteSpace=wrap;html=1;" parent="1" vertex="1">
          <mxGeometry x="224" y="230" width="110" height="40" as="geometry" />
        </mxCell>
        <mxCell id="xaVwnvX1pW1te5dj2mxQ-22" style="edgeStyle=orthogonalEdgeStyle;rounded=0;orthogonalLoop=1;jettySize=auto;html=1;exitX=1;exitY=0.25;exitDx=0;exitDy=0;entryX=0.274;entryY=0.981;entryDx=0;entryDy=0;entryPerimeter=0;" parent="1" source="90ok9S_lP7ERI0MDJw1I-2" target="xaVwnvX1pW1te5dj2mxQ-20" edge="1">
          <mxGeometry relative="1" as="geometry">
            <Array as="points">
              <mxPoint x="219" y="310" />
              <mxPoint x="219" y="295" />
              <mxPoint x="254" y="295" />
            </Array>
          </mxGeometry>
        </mxCell>
        <mxCell id="xaVwnvX1pW1te5dj2mxQ-26" value="Estado_Usuario" style="ellipse;whiteSpace=wrap;html=1;" parent="1" vertex="1">
          <mxGeometry x="184" y="440" width="110" height="40" as="geometry" />
        </mxCell>
        <mxCell id="xaVwnvX1pW1te5dj2mxQ-33" style="edgeStyle=orthogonalEdgeStyle;rounded=0;orthogonalLoop=1;jettySize=auto;html=1;exitX=0;exitY=0.5;exitDx=0;exitDy=0;entryX=0.5;entryY=0;entryDx=0;entryDy=0;" parent="1" source="xaVwnvX1pW1te5dj2mxQ-29" target="xaVwnvX1pW1te5dj2mxQ-31" edge="1">
          <mxGeometry relative="1" as="geometry">
            <Array as="points">
              <mxPoint x="214" y="80" />
            </Array>
          </mxGeometry>
        </mxCell>
        <mxCell id="xaVwnvX1pW1te5dj2mxQ-37" style="edgeStyle=orthogonalEdgeStyle;rounded=0;orthogonalLoop=1;jettySize=auto;html=1;exitX=1;exitY=0.5;exitDx=0;exitDy=0;entryX=0.5;entryY=0;entryDx=0;entryDy=0;" parent="1" source="xaVwnvX1pW1te5dj2mxQ-29" target="xaVwnvX1pW1te5dj2mxQ-34" edge="1">
          <mxGeometry relative="1" as="geometry">
            <mxPoint x="403" y="126" as="targetPoint" />
            <Array as="points">
              <mxPoint x="339" y="80" />
            </Array>
          </mxGeometry>
        </mxCell>
        <mxCell id="xaVwnvX1pW1te5dj2mxQ-29" value="PRIVILEGIOS" style="rounded=0;whiteSpace=wrap;html=1;fillColor=#30F8FF;" parent="1" vertex="1">
          <mxGeometry x="239" y="60" width="80" height="40" as="geometry" />
        </mxCell>
        <mxCell id="xaVwnvX1pW1te5dj2mxQ-31" value="ID_Privilegos" style="ellipse;whiteSpace=wrap;html=1;" parent="1" vertex="1">
          <mxGeometry x="159" y="110" width="110" height="40" as="geometry" />
        </mxCell>
        <mxCell id="xaVwnvX1pW1te5dj2mxQ-34" value="DescripciÃ³n _Privilegos" style="ellipse;whiteSpace=wrap;html=1;" parent="1" vertex="1">
          <mxGeometry x="284" y="130" width="110" height="40" as="geometry" />
        </mxCell>
        <mxCell id="xaVwnvX1pW1te5dj2mxQ-38" value="ID_Medicamento" style="ellipse;whiteSpace=wrap;html=1;" parent="1" vertex="1">
          <mxGeometry x="435.75" y="720" width="103.5" height="40" as="geometry" />
        </mxCell>
        <mxCell id="xaVwnvX1pW1te5dj2mxQ-39" value="Nombre_Medicamento" style="ellipse;whiteSpace=wrap;html=1;" parent="1" vertex="1">
          <mxGeometry x="424.62" y="822.5" width="130" height="40" as="geometry" />
        </mxCell>
        <mxCell id="xaVwnvX1pW1te5dj2mxQ-44" value="DescripciÃ³n _Medicamento" style="ellipse;whiteSpace=wrap;html=1;" parent="1" vertex="1">
          <mxGeometry x="678.75" y="822.5" width="130" height="40" as="geometry" />
        </mxCell>
        <mxCell id="xaVwnvX1pW1te5dj2mxQ-46" value="ID_inventario" style="ellipse;whiteSpace=wrap;html=1;" parent="1" vertex="1">
          <mxGeometry x="527.62" y="490" width="100" height="40" as="geometry" />
        </mxCell>
        <mxCell id="xaVwnvX1pW1te5dj2mxQ-47" value="Stock_inventario" style="ellipse;whiteSpace=wrap;html=1;" parent="1" vertex="1">
          <mxGeometry x="540.87" y="620" width="100" height="40" as="geometry" />
        </mxCell>
        <mxCell id="xaVwnvX1pW1te5dj2mxQ-50" value="Fecha_entrada&lt;div&gt;_inventario&lt;/div&gt;" style="ellipse;whiteSpace=wrap;html=1;" parent="1" vertex="1">
          <mxGeometry x="640.87" y="640" width="100" height="40" as="geometry" />
        </mxCell>
        <mxCell id="xaVwnvX1pW1te5dj2mxQ-55" value="EPS_orden" style="ellipse;whiteSpace=wrap;html=1;" parent="1" vertex="1">
          <mxGeometry x="464.87" y="1005" width="110" height="30" as="geometry" />
        </mxCell>
        <mxCell id="xaVwnvX1pW1te5dj2mxQ-56" value="ID&lt;span style=&quot;background-color: initial;&quot;&gt;_Orden&lt;/span&gt;" style="ellipse;whiteSpace=wrap;html=1;" parent="1" vertex="1">
          <mxGeometry x="584.87" y="1005" width="110" height="40" as="geometry" />
        </mxCell>
        <mxCell id="xaVwnvX1pW1te5dj2mxQ-57" value="Fecha_Orden" style="ellipse;whiteSpace=wrap;html=1;" parent="1" vertex="1">
          <mxGeometry x="674.87" y="975" width="100" height="40" as="geometry" />
        </mxCell>
        <mxCell id="xaVwnvX1pW1te5dj2mxQ-62" value="Cantidad_Orden" style="ellipse;whiteSpace=wrap;html=1;" parent="1" vertex="1">
          <mxGeometry x="680.87" y="920" width="100" height="40" as="geometry" />
        </mxCell>
        <mxCell id="xaVwnvX1pW1te5dj2mxQ-63" value="Fecha_entrega _domicilio" style="ellipse;whiteSpace=wrap;html=1;" parent="1" vertex="1">
          <mxGeometry x="34" y="772.5" width="100" height="40" as="geometry" />
        </mxCell>
        <mxCell id="xaVwnvX1pW1te5dj2mxQ-68" value="ID_Domicilio" style="ellipse;whiteSpace=wrap;html=1;" parent="1" vertex="1">
          <mxGeometry x="9" y="892.5" width="100" height="40" as="geometry" />
        </mxCell>
        <mxCell id="xaVwnvX1pW1te5dj2mxQ-75" style="edgeStyle=orthogonalEdgeStyle;rounded=0;orthogonalLoop=1;jettySize=auto;html=1;exitX=0;exitY=0.75;exitDx=0;exitDy=0;entryX=0.5;entryY=0;entryDx=0;entryDy=0;" parent="1" source="xaVwnvX1pW1te5dj2mxQ-71" target="xaVwnvX1pW1te5dj2mxQ-72" edge="1">
          <mxGeometry relative="1" as="geometry">
            <mxPoint x="74" y="560" as="targetPoint" />
            <Array as="points">
              <mxPoint x="84" y="540" />
              <mxPoint x="59" y="540" />
            </Array>
          </mxGeometry>
        </mxCell>
        <mxCell id="xaVwnvX1pW1te5dj2mxQ-76" style="edgeStyle=orthogonalEdgeStyle;rounded=0;orthogonalLoop=1;jettySize=auto;html=1;exitX=0.5;exitY=1;exitDx=0;exitDy=0;entryX=1;entryY=0.5;entryDx=0;entryDy=0;" parent="1" source="xaVwnvX1pW1te5dj2mxQ-71" target="xaVwnvX1pW1te5dj2mxQ-73" edge="1">
          <mxGeometry relative="1" as="geometry">
            <Array as="points">
              <mxPoint x="124" y="630" />
            </Array>
          </mxGeometry>
        </mxCell>
        <mxCell id="xaVwnvX1pW1te5dj2mxQ-80" style="edgeStyle=orthogonalEdgeStyle;rounded=0;orthogonalLoop=1;jettySize=auto;html=1;exitX=1;exitY=1;exitDx=0;exitDy=0;entryX=0;entryY=0.5;entryDx=0;entryDy=0;" parent="1" source="xaVwnvX1pW1te5dj2mxQ-71" target="xaVwnvX1pW1te5dj2mxQ-78" edge="1">
          <mxGeometry relative="1" as="geometry">
            <Array as="points">
              <mxPoint x="170" y="560" />
              <mxPoint x="170" y="550" />
            </Array>
          </mxGeometry>
        </mxCell>
        <mxCell id="xaVwnvX1pW1te5dj2mxQ-82" style="edgeStyle=orthogonalEdgeStyle;rounded=0;orthogonalLoop=1;jettySize=auto;html=1;exitX=1;exitY=0.5;exitDx=0;exitDy=0;entryX=0;entryY=0.5;entryDx=0;entryDy=0;" parent="1" source="xaVwnvX1pW1te5dj2mxQ-71" target="xaVwnvX1pW1te5dj2mxQ-81" edge="1">
          <mxGeometry relative="1" as="geometry" />
        </mxCell>
        <mxCell id="f1HJiwLRENyDKbowDYg4-3" style="edgeStyle=orthogonalEdgeStyle;rounded=0;orthogonalLoop=1;jettySize=auto;html=1;exitX=0.5;exitY=0;exitDx=0;exitDy=0;entryX=0.5;entryY=1;entryDx=0;entryDy=0;" parent="1" source="xaVwnvX1pW1te5dj2mxQ-71" target="xaVwnvX1pW1te5dj2mxQ-98" edge="1">
          <mxGeometry relative="1" as="geometry" />
        </mxCell>
        <mxCell id="mYfQ8tRDo9UHmEF64cow-7" style="edgeStyle=orthogonalEdgeStyle;rounded=0;orthogonalLoop=1;jettySize=auto;html=1;exitX=0.75;exitY=1;exitDx=0;exitDy=0;entryX=1;entryY=0;entryDx=0;entryDy=0;" edge="1" parent="1" source="xaVwnvX1pW1te5dj2mxQ-71" target="xaVwnvX1pW1te5dj2mxQ-74">
          <mxGeometry relative="1" as="geometry">
            <Array as="points">
              <mxPoint x="140" y="560" />
              <mxPoint x="140" y="650" />
              <mxPoint x="119" y="650" />
            </Array>
          </mxGeometry>
        </mxCell>
        <mxCell id="mYfQ8tRDo9UHmEF64cow-8" style="edgeStyle=orthogonalEdgeStyle;rounded=0;orthogonalLoop=1;jettySize=auto;html=1;exitX=0.75;exitY=1;exitDx=0;exitDy=0;entryX=0;entryY=0;entryDx=0;entryDy=0;" edge="1" parent="1" source="xaVwnvX1pW1te5dj2mxQ-71" target="mYfQ8tRDo9UHmEF64cow-6">
          <mxGeometry relative="1" as="geometry">
            <Array as="points">
              <mxPoint x="160" y="560" />
              <mxPoint x="160" y="600" />
              <mxPoint x="201" y="600" />
            </Array>
          </mxGeometry>
        </mxCell>
        <mxCell id="mYfQ8tRDo9UHmEF64cow-10" style="edgeStyle=orthogonalEdgeStyle;rounded=0;orthogonalLoop=1;jettySize=auto;html=1;exitX=1;exitY=1;exitDx=0;exitDy=0;entryX=0;entryY=0;entryDx=0;entryDy=0;" edge="1" parent="1" source="xaVwnvX1pW1te5dj2mxQ-71" target="mYfQ8tRDo9UHmEF64cow-9">
          <mxGeometry relative="1" as="geometry">
            <Array as="points">
              <mxPoint x="164" y="570" />
              <mxPoint x="230" y="570" />
            </Array>
          </mxGeometry>
        </mxCell>
        <mxCell id="xaVwnvX1pW1te5dj2mxQ-71" value="VehÃ­culo" style="rounded=0;whiteSpace=wrap;html=1;fillColor=#30F8FF;" parent="1" vertex="1">
          <mxGeometry x="84" y="520" width="80" height="40" as="geometry" />
        </mxCell>
        <mxCell id="xaVwnvX1pW1te5dj2mxQ-72" value="ID_VehÃ­culo" style="ellipse;whiteSpace=wrap;html=1;" parent="1" vertex="1">
          <mxGeometry x="9" y="565" width="100" height="40" as="geometry" />
        </mxCell>
        <mxCell id="xaVwnvX1pW1te5dj2mxQ-73" value="Color_VehÃ­culo" style="ellipse;whiteSpace=wrap;html=1;" parent="1" vertex="1">
          <mxGeometry x="4" y="610" width="100" height="40" as="geometry" />
        </mxCell>
        <mxCell id="xaVwnvX1pW1te5dj2mxQ-74" value="Placa_VehÃ­culo" style="ellipse;whiteSpace=wrap;html=1;" parent="1" vertex="1">
          <mxGeometry x="34" y="660" width="100" height="40" as="geometry" />
        </mxCell>
        <mxCell id="xaVwnvX1pW1te5dj2mxQ-78" value="Tipo_VehÃ­culo" style="ellipse;whiteSpace=wrap;html=1;" parent="1" vertex="1">
          <mxGeometry x="229" y="530" width="90" height="40" as="geometry" />
        </mxCell>
        <mxCell id="xaVwnvX1pW1te5dj2mxQ-81" value="Propietario _VehÃ­culo" style="ellipse;whiteSpace=wrap;html=1;" parent="1" vertex="1">
          <mxGeometry x="215" y="490" width="90" height="40" as="geometry" />
        </mxCell>
        <mxCell id="xaVwnvX1pW1te5dj2mxQ-83" value="UbicaciÃ³n _Domicilio" style="ellipse;whiteSpace=wrap;html=1;" parent="1" vertex="1">
          <mxGeometry x="9" y="970" width="100" height="40" as="geometry" />
        </mxCell>
        <mxCell id="xaVwnvX1pW1te5dj2mxQ-92" style="edgeStyle=orthogonalEdgeStyle;rounded=0;orthogonalLoop=1;jettySize=auto;html=1;exitX=0.5;exitY=0;exitDx=0;exitDy=0;" parent="1" source="xaVwnvX1pW1te5dj2mxQ-91" target="xaVwnvX1pW1te5dj2mxQ-29" edge="1">
          <mxGeometry relative="1" as="geometry">
            <mxPoint x="264" y="200" as="sourcePoint" />
            <Array as="points">
              <mxPoint x="214" y="170" />
              <mxPoint x="279" y="170" />
            </Array>
          </mxGeometry>
        </mxCell>
        <mxCell id="xaVwnvX1pW1te5dj2mxQ-91" value="TIENE" style="rhombus;fillColor=#9D80FF;" parent="1" vertex="1">
          <mxGeometry x="176.5" y="180" width="75" height="30" as="geometry" />
        </mxCell>
        <mxCell id="xaVwnvX1pW1te5dj2mxQ-100" style="edgeStyle=orthogonalEdgeStyle;rounded=0;orthogonalLoop=1;jettySize=auto;html=1;exitX=0.5;exitY=0;exitDx=0;exitDy=0;entryX=0.5;entryY=1;entryDx=0;entryDy=0;" parent="1" source="xaVwnvX1pW1te5dj2mxQ-95" target="90ok9S_lP7ERI0MDJw1I-1" edge="1">
          <mxGeometry relative="1" as="geometry" />
        </mxCell>
        <mxCell id="xaVwnvX1pW1te5dj2mxQ-95" value="PERTENCE" style="rhombus;fillColor=#9D80FF;" parent="1" vertex="1">
          <mxGeometry x="54" y="190" width="92.5" height="30" as="geometry" />
        </mxCell>
        <mxCell id="f1HJiwLRENyDKbowDYg4-4" style="edgeStyle=orthogonalEdgeStyle;rounded=0;orthogonalLoop=1;jettySize=auto;html=1;exitX=0.5;exitY=0;exitDx=0;exitDy=0;entryX=0.25;entryY=1;entryDx=0;entryDy=0;" parent="1" source="xaVwnvX1pW1te5dj2mxQ-98" target="90ok9S_lP7ERI0MDJw1I-2" edge="1">
          <mxGeometry relative="1" as="geometry">
            <Array as="points">
              <mxPoint x="130" y="470" />
              <mxPoint x="130" y="390" />
              <mxPoint x="152" y="390" />
            </Array>
          </mxGeometry>
        </mxCell>
        <mxCell id="xaVwnvX1pW1te5dj2mxQ-98" value="PERTENCE" style="rhombus;fillColor=#9D80FF;" parent="1" vertex="1">
          <mxGeometry x="94" y="470" width="92.5" height="30" as="geometry" />
        </mxCell>
        <mxCell id="wxssQNWGxN7WhbjY_FcK-6" style="edgeStyle=orthogonalEdgeStyle;rounded=0;orthogonalLoop=1;jettySize=auto;html=1;entryX=0.5;entryY=0;entryDx=0;entryDy=0;exitX=0.5;exitY=1;exitDx=0;exitDy=0;" parent="1" source="xaVwnvX1pW1te5dj2mxQ-111" target="90ok9S_lP7ERI0MDJw1I-5" edge="1">
          <mxGeometry relative="1" as="geometry">
            <mxPoint x="490" y="650" as="sourcePoint" />
            <Array as="points">
              <mxPoint x="510" y="628" />
              <mxPoint x="510" y="710" />
              <mxPoint x="591" y="710" />
              <mxPoint x="591" y="760" />
            </Array>
          </mxGeometry>
        </mxCell>
        <mxCell id="xaVwnvX1pW1te5dj2mxQ-111" value="SUMINISTRA" style="rhombus;fillColor=#9D80FF;" parent="1" vertex="1">
          <mxGeometry x="442.37" y="660" width="132.5" height="30" as="geometry" />
        </mxCell>
        <mxCell id="mYfQ8tRDo9UHmEF64cow-46" style="edgeStyle=orthogonalEdgeStyle;rounded=0;orthogonalLoop=1;jettySize=auto;html=1;exitX=0;exitY=0.5;exitDx=0;exitDy=0;entryX=1;entryY=0.5;entryDx=0;entryDy=0;" edge="1" parent="1" source="xaVwnvX1pW1te5dj2mxQ-118" target="90ok9S_lP7ERI0MDJw1I-3">
          <mxGeometry relative="1" as="geometry" />
        </mxCell>
        <mxCell id="xaVwnvX1pW1te5dj2mxQ-118" value="GENERA" style="rhombus;fillColor=#9D80FF;" parent="1" vertex="1">
          <mxGeometry x="332.12" y="990" width="92.5" height="30" as="geometry" />
        </mxCell>
        <mxCell id="f1HJiwLRENyDKbowDYg4-2" style="edgeStyle=orthogonalEdgeStyle;rounded=0;orthogonalLoop=1;jettySize=auto;html=1;exitX=0.5;exitY=1;exitDx=0;exitDy=0;entryX=0;entryY=0.25;entryDx=0;entryDy=0;" parent="1" source="xaVwnvX1pW1te5dj2mxQ-120" target="90ok9S_lP7ERI0MDJw1I-5" edge="1">
          <mxGeometry relative="1" as="geometry" />
        </mxCell>
        <mxCell id="xaVwnvX1pW1te5dj2mxQ-120" value="TIENE" style="rhombus;fillColor=#9D80FF;" parent="1" vertex="1">
          <mxGeometry x="384" y="502.5" width="86" height="30" as="geometry" />
        </mxCell>
        <mxCell id="xaVwnvX1pW1te5dj2mxQ-124" value="Estado_Orden" style="ellipse;whiteSpace=wrap;html=1;" parent="1" vertex="1">
          <mxGeometry x="479.87" y="900" width="100" height="40" as="geometry" />
        </mxCell>
        <mxCell id="wxssQNWGxN7WhbjY_FcK-2" value="Imagen_&lt;div&gt;Medicamento&lt;/div&gt;" style="ellipse;whiteSpace=wrap;html=1;" parent="1" vertex="1">
          <mxGeometry x="680.87" y="740" width="130" height="40" as="geometry" />
        </mxCell>
        <mxCell id="wxssQNWGxN7WhbjY_FcK-11" value="Estado_domicilio" style="ellipse;whiteSpace=wrap;html=1;" parent="1" vertex="1">
          <mxGeometry x="200.5" y="792.5" width="100" height="40" as="geometry" />
        </mxCell>
        <mxCell id="wxssQNWGxN7WhbjY_FcK-17" value="Fecha_salida&lt;div&gt;_inventario&lt;/div&gt;" style="ellipse;whiteSpace=wrap;html=1;" parent="1" vertex="1">
          <mxGeometry x="693.75" y="565" width="100" height="40" as="geometry" />
        </mxCell>
        <mxCell id="wxssQNWGxN7WhbjY_FcK-18" value="&lt;div&gt;vencimiento&lt;/div&gt;&lt;div&gt;&lt;span style=&quot;background-color: initial;&quot;&gt;MED&lt;/span&gt;&lt;span style=&quot;background-color: initial;&quot;&gt;_inventario&lt;/span&gt;&lt;/div&gt;" style="ellipse;whiteSpace=wrap;html=1;" parent="1" vertex="1">
          <mxGeometry x="710.87" y="497.5" width="100" height="40" as="geometry" />
        </mxCell>
        <mxCell id="wxssQNWGxN7WhbjY_FcK-22" value="Estado_MED&lt;div&gt;_inventario&lt;/div&gt;" style="ellipse;whiteSpace=wrap;html=1;" parent="1" vertex="1">
          <mxGeometry x="693.75" y="440" width="100" height="40" as="geometry" />
        </mxCell>
        <mxCell id="mYfQ8tRDo9UHmEF64cow-2" style="edgeStyle=orthogonalEdgeStyle;rounded=0;orthogonalLoop=1;jettySize=auto;html=1;exitX=0.5;exitY=1;exitDx=0;exitDy=0;" edge="1" parent="1" source="90ok9S_lP7ERI0MDJw1I-2" target="90ok9S_lP7ERI0MDJw1I-2">
          <mxGeometry relative="1" as="geometry" />
        </mxCell>
        <mxCell id="mYfQ8tRDo9UHmEF64cow-6" value="Marca_VehÃ­culo" style="ellipse;whiteSpace=wrap;html=1;" vertex="1" parent="1">
          <mxGeometry x="186.5" y="625" width="100" height="40" as="geometry" />
        </mxCell>
        <mxCell id="mYfQ8tRDo9UHmEF64cow-9" value="Estado_VehÃ­culo" style="ellipse;whiteSpace=wrap;html=1;" vertex="1" parent="1">
          <mxGeometry x="215" y="580" width="100" height="40" as="geometry" />
        </mxCell>
        <mxCell id="mYfQ8tRDo9UHmEF64cow-13" style="edgeStyle=orthogonalEdgeStyle;rounded=0;orthogonalLoop=1;jettySize=auto;html=1;exitX=0.75;exitY=1;exitDx=0;exitDy=0;" edge="1" parent="1" source="mYfQ8tRDo9UHmEF64cow-14">
          <mxGeometry relative="1" as="geometry">
            <mxPoint x="167" y="750" as="targetPoint" />
          </mxGeometry>
        </mxCell>
        <mxCell id="mYfQ8tRDo9UHmEF64cow-15" value="" style="edgeStyle=orthogonalEdgeStyle;rounded=0;orthogonalLoop=1;jettySize=auto;html=1;exitX=0.75;exitY=1;exitDx=0;exitDy=0;" edge="1" parent="1" source="xaVwnvX1pW1te5dj2mxQ-71" target="mYfQ8tRDo9UHmEF64cow-14">
          <mxGeometry relative="1" as="geometry">
            <mxPoint x="144" y="560" as="sourcePoint" />
            <mxPoint x="167" y="750" as="targetPoint" />
          </mxGeometry>
        </mxCell>
        <mxCell id="mYfQ8tRDo9UHmEF64cow-16" style="edgeStyle=orthogonalEdgeStyle;rounded=0;orthogonalLoop=1;jettySize=auto;html=1;entryX=0.5;entryY=0;entryDx=0;entryDy=0;" edge="1" parent="1" source="mYfQ8tRDo9UHmEF64cow-14" target="90ok9S_lP7ERI0MDJw1I-3">
          <mxGeometry relative="1" as="geometry" />
        </mxCell>
        <mxCell id="mYfQ8tRDo9UHmEF64cow-14" value="TIENE" style="rhombus;fillColor=#9D80FF;" vertex="1" parent="1">
          <mxGeometry x="122.5" y="750" width="92.5" height="30" as="geometry" />
        </mxCell>
        <mxCell id="mYfQ8tRDo9UHmEF64cow-18" style="edgeStyle=orthogonalEdgeStyle;rounded=0;orthogonalLoop=1;jettySize=auto;html=1;exitX=0.5;exitY=1;exitDx=0;exitDy=0;entryX=0.5;entryY=0;entryDx=0;entryDy=0;" edge="1" parent="1" source="mYfQ8tRDo9UHmEF64cow-21" target="mYfQ8tRDo9UHmEF64cow-25">
          <mxGeometry relative="1" as="geometry" />
        </mxCell>
        <mxCell id="mYfQ8tRDo9UHmEF64cow-20" style="edgeStyle=orthogonalEdgeStyle;rounded=0;orthogonalLoop=1;jettySize=auto;html=1;exitX=0.75;exitY=0;exitDx=0;exitDy=0;entryX=0;entryY=0.5;entryDx=0;entryDy=0;" edge="1" parent="1" source="mYfQ8tRDo9UHmEF64cow-21" target="mYfQ8tRDo9UHmEF64cow-26">
          <mxGeometry relative="1" as="geometry" />
        </mxCell>
        <mxCell id="mYfQ8tRDo9UHmEF64cow-32" style="edgeStyle=orthogonalEdgeStyle;rounded=0;orthogonalLoop=1;jettySize=auto;html=1;exitX=1;exitY=0.5;exitDx=0;exitDy=0;entryX=0.5;entryY=0;entryDx=0;entryDy=0;" edge="1" parent="1" source="mYfQ8tRDo9UHmEF64cow-21" target="mYfQ8tRDo9UHmEF64cow-24">
          <mxGeometry relative="1" as="geometry" />
        </mxCell>
        <mxCell id="mYfQ8tRDo9UHmEF64cow-21" value="PQRS" style="rounded=0;whiteSpace=wrap;html=1;fillColor=#30F8FF;" vertex="1" parent="1">
          <mxGeometry x="479.5" y="80" width="100" height="30" as="geometry" />
        </mxCell>
        <mxCell id="mYfQ8tRDo9UHmEF64cow-22" style="edgeStyle=orthogonalEdgeStyle;rounded=0;orthogonalLoop=1;jettySize=auto;html=1;exitX=0.49;exitY=-0.14;exitDx=0;exitDy=0;entryX=0.5;entryY=1;entryDx=0;entryDy=0;exitPerimeter=0;" edge="1" parent="1" source="mYfQ8tRDo9UHmEF64cow-21" target="mYfQ8tRDo9UHmEF64cow-23">
          <mxGeometry relative="1" as="geometry" />
        </mxCell>
        <mxCell id="mYfQ8tRDo9UHmEF64cow-23" value="Motivo_PQRS" style="ellipse;whiteSpace=wrap;html=1;" vertex="1" parent="1">
          <mxGeometry x="376" y="20" width="100" height="40" as="geometry" />
        </mxCell>
        <mxCell id="mYfQ8tRDo9UHmEF64cow-24" value="ID_PQRS" style="ellipse;whiteSpace=wrap;html=1;" vertex="1" parent="1">
          <mxGeometry x="562.5" y="120" width="100" height="40" as="geometry" />
        </mxCell>
        <mxCell id="mYfQ8tRDo9UHmEF64cow-25" value="Tipo_solicitud" style="ellipse;whiteSpace=wrap;html=1;" vertex="1" parent="1">
          <mxGeometry x="462.5" y="140" width="100" height="40" as="geometry" />
        </mxCell>
        <mxCell id="mYfQ8tRDo9UHmEF64cow-26" value="Fecha_PQRS" style="ellipse;whiteSpace=wrap;html=1;" vertex="1" parent="1">
          <mxGeometry x="508" y="10" width="100" height="40" as="geometry" />
        </mxCell>
        <mxCell id="mYfQ8tRDo9UHmEF64cow-28" style="edgeStyle=orthogonalEdgeStyle;rounded=0;orthogonalLoop=1;jettySize=auto;html=1;entryX=0;entryY=0.5;entryDx=0;entryDy=0;" edge="1" parent="1" source="mYfQ8tRDo9UHmEF64cow-29" target="mYfQ8tRDo9UHmEF64cow-21">
          <mxGeometry relative="1" as="geometry">
            <Array as="points">
              <mxPoint x="462" y="155" />
              <mxPoint x="462" y="128" />
            </Array>
          </mxGeometry>
        </mxCell>
        <mxCell id="mYfQ8tRDo9UHmEF64cow-29" value="CREA" style="rhombus;fillColor=#9D80FF;" vertex="1" parent="1">
          <mxGeometry x="353.5" y="190" width="92.5" height="30" as="geometry" />
        </mxCell>
        <mxCell id="mYfQ8tRDo9UHmEF64cow-33" value="Formula_medica" style="ellipse;whiteSpace=wrap;html=1;" vertex="1" parent="1">
          <mxGeometry x="64" y="1020" width="100" height="40" as="geometry" />
        </mxCell>
        <mxCell id="mYfQ8tRDo9UHmEF64cow-35" value="EPS_orden" style="ellipse;whiteSpace=wrap;html=1;" vertex="1" parent="1">
          <mxGeometry x="146.5" y="990" width="110" height="30" as="geometry" />
        </mxCell>
        <mxCell id="mYfQ8tRDo9UHmEF64cow-37" value="TelÃ©fono _Usuario" style="ellipse;whiteSpace=wrap;html=1;" vertex="1" parent="1">
          <mxGeometry x="164" y="910" width="100" height="40" as="geometry" />
        </mxCell>
        <mxCell id="mYfQ8tRDo9UHmEF64cow-44" style="edgeStyle=orthogonalEdgeStyle;rounded=0;orthogonalLoop=1;jettySize=auto;html=1;exitX=0.88;exitY=0.448;exitDx=0;exitDy=0;entryX=0;entryY=0.25;entryDx=0;entryDy=0;exitPerimeter=0;" edge="1" parent="1" source="mYfQ8tRDo9UHmEF64cow-42" target="90ok9S_lP7ERI0MDJw1I-7">
          <mxGeometry relative="1" as="geometry">
            <mxPoint x="464.87" y="960" as="sourcePoint" />
            <Array as="points">
              <mxPoint x="400" y="773" />
              <mxPoint x="400" y="965" />
            </Array>
          </mxGeometry>
        </mxCell>
        <mxCell id="mYfQ8tRDo9UHmEF64cow-42" value="REGISTRA" style="rhombus;fillColor=#9D80FF;" vertex="1" parent="1">
          <mxGeometry x="264" y="760" width="92.5" height="30" as="geometry" />
        </mxCell>
        <mxCell id="mYfQ8tRDo9UHmEF64cow-47" style="edgeStyle=orthogonalEdgeStyle;rounded=0;orthogonalLoop=1;jettySize=auto;html=1;exitX=0.75;exitY=1;exitDx=0;exitDy=0;entryX=0.5;entryY=0;entryDx=0;entryDy=0;" edge="1" parent="1" source="mYfQ8tRDo9UHmEF64cow-52" target="mYfQ8tRDo9UHmEF64cow-62">
          <mxGeometry relative="1" as="geometry">
            <mxPoint x="585.25" y="310.5" as="targetPoint" />
          </mxGeometry>
        </mxCell>
        <mxCell id="mYfQ8tRDo9UHmEF64cow-48" style="edgeStyle=orthogonalEdgeStyle;rounded=0;orthogonalLoop=1;jettySize=auto;html=1;exitX=1;exitY=0.5;exitDx=0;exitDy=0;entryX=0;entryY=0.5;entryDx=0;entryDy=0;" edge="1" parent="1" source="mYfQ8tRDo9UHmEF64cow-52" target="mYfQ8tRDo9UHmEF64cow-54">
          <mxGeometry relative="1" as="geometry" />
        </mxCell>
        <mxCell id="mYfQ8tRDo9UHmEF64cow-49" style="edgeStyle=orthogonalEdgeStyle;rounded=0;orthogonalLoop=1;jettySize=auto;html=1;exitX=1;exitY=0.25;exitDx=0;exitDy=0;entryX=0;entryY=0.725;entryDx=0;entryDy=0;entryPerimeter=0;" edge="1" parent="1" source="mYfQ8tRDo9UHmEF64cow-52" target="mYfQ8tRDo9UHmEF64cow-55">
          <mxGeometry relative="1" as="geometry">
            <mxPoint x="658.75" y="255" as="targetPoint" />
          </mxGeometry>
        </mxCell>
        <mxCell id="mYfQ8tRDo9UHmEF64cow-50" style="edgeStyle=orthogonalEdgeStyle;rounded=0;orthogonalLoop=1;jettySize=auto;html=1;exitX=0.25;exitY=0;exitDx=0;exitDy=0;entryX=0.5;entryY=1;entryDx=0;entryDy=0;" edge="1" parent="1" source="mYfQ8tRDo9UHmEF64cow-52" target="mYfQ8tRDo9UHmEF64cow-56">
          <mxGeometry relative="1" as="geometry">
            <mxPoint x="543.4166666666667" y="235" as="targetPoint" />
          </mxGeometry>
        </mxCell>
        <mxCell id="mYfQ8tRDo9UHmEF64cow-51" style="edgeStyle=orthogonalEdgeStyle;rounded=0;orthogonalLoop=1;jettySize=auto;html=1;exitX=0;exitY=1;exitDx=0;exitDy=0;entryX=0.5;entryY=0;entryDx=0;entryDy=0;" edge="1" parent="1" source="mYfQ8tRDo9UHmEF64cow-52" target="mYfQ8tRDo9UHmEF64cow-53">
          <mxGeometry relative="1" as="geometry">
            <Array as="points">
              <mxPoint x="504.75" y="295" />
              <mxPoint x="504.75" y="290" />
              <mxPoint x="472.75" y="290" />
            </Array>
          </mxGeometry>
        </mxCell>
        <mxCell id="mYfQ8tRDo9UHmEF64cow-64" style="edgeStyle=orthogonalEdgeStyle;rounded=0;orthogonalLoop=1;jettySize=auto;html=1;exitX=0.5;exitY=0;exitDx=0;exitDy=0;entryX=0;entryY=1;entryDx=0;entryDy=0;" edge="1" parent="1" source="mYfQ8tRDo9UHmEF64cow-52" target="mYfQ8tRDo9UHmEF64cow-63">
          <mxGeometry relative="1" as="geometry" />
        </mxCell>
        <mxCell id="mYfQ8tRDo9UHmEF64cow-65" style="edgeStyle=orthogonalEdgeStyle;rounded=0;orthogonalLoop=1;jettySize=auto;html=1;exitX=1;exitY=1;exitDx=0;exitDy=0;entryX=0;entryY=0;entryDx=0;entryDy=0;" edge="1" parent="1" source="mYfQ8tRDo9UHmEF64cow-52" target="mYfQ8tRDo9UHmEF64cow-61">
          <mxGeometry relative="1" as="geometry" />
        </mxCell>
        <mxCell id="mYfQ8tRDo9UHmEF64cow-66" style="edgeStyle=orthogonalEdgeStyle;rounded=0;orthogonalLoop=1;jettySize=auto;html=1;exitX=0.25;exitY=1;exitDx=0;exitDy=0;entryX=0.5;entryY=0;entryDx=0;entryDy=0;" edge="1" parent="1" source="mYfQ8tRDo9UHmEF64cow-52" target="xaVwnvX1pW1te5dj2mxQ-120">
          <mxGeometry relative="1" as="geometry">
            <Array as="points">
              <mxPoint x="580" y="335" />
              <mxPoint x="580" y="413" />
              <mxPoint x="427" y="413" />
            </Array>
          </mxGeometry>
        </mxCell>
        <mxCell id="mYfQ8tRDo9UHmEF64cow-52" value="CONTROL" style="rounded=0;whiteSpace=wrap;html=1;fillColor=#30F8FF;" vertex="1" parent="1">
          <mxGeometry x="524.75" y="255" width="100" height="40" as="geometry" />
        </mxCell>
        <mxCell id="mYfQ8tRDo9UHmEF64cow-53" value="Problema_salud" style="ellipse;whiteSpace=wrap;html=1;" vertex="1" parent="1">
          <mxGeometry x="417.62" y="310" width="110" height="30" as="geometry" />
        </mxCell>
        <mxCell id="mYfQ8tRDo9UHmEF64cow-54" value="Frecuencia_MED" style="ellipse;whiteSpace=wrap;html=1;" vertex="1" parent="1">
          <mxGeometry x="658.75" y="275" width="100" height="40" as="geometry" />
        </mxCell>
        <mxCell id="mYfQ8tRDo9UHmEF64cow-55" value="Cantidad_MED" style="ellipse;whiteSpace=wrap;html=1;" vertex="1" parent="1">
          <mxGeometry x="664.75" y="220" width="100" height="40" as="geometry" />
        </mxCell>
        <mxCell id="mYfQ8tRDo9UHmEF64cow-56" value="ID_control" style="ellipse;whiteSpace=wrap;html=1;" vertex="1" parent="1">
          <mxGeometry x="463.75" y="200" width="100" height="40" as="geometry" />
        </mxCell>
        <mxCell id="mYfQ8tRDo9UHmEF64cow-59" value="" style="edgeStyle=orthogonalEdgeStyle;rounded=0;orthogonalLoop=1;jettySize=auto;html=1;" edge="1" parent="1" source="90ok9S_lP7ERI0MDJw1I-2" target="mYfQ8tRDo9UHmEF64cow-58">
          <mxGeometry relative="1" as="geometry">
            <mxPoint x="440" y="360" as="targetPoint" />
            <mxPoint x="237" y="320" as="sourcePoint" />
          </mxGeometry>
        </mxCell>
        <mxCell id="mYfQ8tRDo9UHmEF64cow-60" style="edgeStyle=orthogonalEdgeStyle;rounded=0;orthogonalLoop=1;jettySize=auto;html=1;entryX=0;entryY=0.5;entryDx=0;entryDy=0;" edge="1" parent="1" source="mYfQ8tRDo9UHmEF64cow-58" target="mYfQ8tRDo9UHmEF64cow-52">
          <mxGeometry relative="1" as="geometry" />
        </mxCell>
        <mxCell id="mYfQ8tRDo9UHmEF64cow-58" value="REGISTRA" style="rhombus;fillColor=#9D80FF;" vertex="1" parent="1">
          <mxGeometry x="351.25" y="265" width="92.5" height="30" as="geometry" />
        </mxCell>
        <mxCell id="mYfQ8tRDo9UHmEF64cow-61" value="FechaINICIO_&lt;div&gt;Control&lt;/div&gt;" style="ellipse;whiteSpace=wrap;html=1;" vertex="1" parent="1">
          <mxGeometry x="639.25" y="330" width="100" height="40" as="geometry" />
        </mxCell>
        <mxCell id="mYfQ8tRDo9UHmEF64cow-62" value="FechaFIN_&lt;div&gt;Control&lt;/div&gt;" style="ellipse;whiteSpace=wrap;html=1;" vertex="1" parent="1">
          <mxGeometry x="539.25" y="330" width="100" height="40" as="geometry" />
        </mxCell>
        <mxCell id="mYfQ8tRDo9UHmEF64cow-63" value="Alarma_&lt;div&gt;Control&lt;/div&gt;" style="ellipse;whiteSpace=wrap;html=1;" vertex="1" parent="1">
          <mxGeometry x="578.75" y="170" width="100" height="40" as="geometry" />
        </mxCell>
        <mxCell id="mYfQ8tRDo9UHmEF64cow-69" style="edgeStyle=orthogonalEdgeStyle;rounded=0;orthogonalLoop=1;jettySize=auto;html=1;exitX=0.5;exitY=0;exitDx=0;exitDy=0;entryX=0.5;entryY=1;entryDx=0;entryDy=0;" edge="1" parent="1" source="mYfQ8tRDo9UHmEF64cow-67" target="90ok9S_lP7ERI0MDJw1I-5">
          <mxGeometry relative="1" as="geometry">
            <Array as="points">
              <mxPoint x="590" y="870" />
              <mxPoint x="590" y="808" />
              <mxPoint x="591" y="808" />
            </Array>
          </mxGeometry>
        </mxCell>
        <mxCell id="mYfQ8tRDo9UHmEF64cow-67" value="TIENE" style="rhombus;fillColor=#9D80FF;" vertex="1" parent="1">
          <mxGeometry x="570" y="870" width="92.5" height="30" as="geometry" />
        </mxCell>
      </root>
    </mxGraphModel>
  </diagram>
</mxfile>
